<svg xmlns="http://www.w3.org/2000/svg" width="584" height="468.599" viewBox="0 0 584 468.599" xmlns:xlink="http://www.w3.org/1999/xlink">
    <g>
        <path d="M409.9967,152.1236h-22.81828l-7.08091,9.62665-18.39951,8.55702,10.92471,66.85171-7.4748,49.73767s52.32359,16.04443,69.57316-3.74372c1.89136-2.49719,2.10699-5.30408-.72534-8.67424l-3.29958-39.45897,.57498-68.45615-17.82452-6.41776-3.44991-8.02221Z" fill="#6c63ff"/>
    </g>
    <g>
        <path d="M367.77754,168.73496l-8.43679,2.16563c-2.92571,.25049-7.87244,19.52793-5.46511,23.70503,0,0-3.71461,33.83737-1.68156,37.02482,2.03305,3.18745-2.40552,41.81491-2.40552,41.81491l15.35399,.08064,11.94211-74.2423-10.68096-22.10722c-.12112-3.7293,5.09151-8.75979,1.37384-8.4415Z" fill="#6c63ff"/>
    </g>
    <g>
        <path d="M414.24728,179.58739h0c1.13928,4.34082,5.38053,7.12004,9.81128,6.40654,6.94074-1.1177,16.62132-3.54438,21.14506-8.66747l13.75137-9.49066,4.18865-3.68723c2.29623-2.02135,3.13195-5.23625,2.11081-8.11996l-16.44749-46.44763-12.73904,3.84982,11.22671,33.27723,.65025,.32741c-5.93622,1.43536-15.32166,9.68533-18,14-5.66522-.65521-9.39709,3.56866-12.50659,9.36322-2.82959,2.13168-4.09036,5.76208-3.19101,9.18873Z" fill="#6c63ff"/>
    </g>
</svg>